<svg xmlns="http://www.w3.org/2000/svg" width="35" height="36" fill="none" viewBox="0 0 35 36"><path fill="url(#a)" d="m25.665 13.7-1.99 1.933c-.41.4-.687 1.245-.59 1.81l.47 2.73c.098.567-.052 1.04-.412 1.302-.36.26-.857.254-1.367-.012l-2.461-1.29c-.508-.267-1.4-.267-1.908 0l-2.461 1.29a1.64 1.64 0 0 1-.75.203c-.23 0-.44-.064-.617-.191-.359-.261-.51-.735-.412-1.301l.47-2.731c.096-.565-.178-1.41-.59-1.81l-1.99-1.934c-.413-.4-.571-.872-.434-1.293s.543-.71 1.114-.792l2.75-.399c.568-.082 1.29-.605 1.544-1.118l1.23-2.485c.255-.515.656-.81 1.1-.81s.845.295 1.1.81l1.23 2.485c.255.513.975 1.036 1.544 1.118l2.75.399c.57.083.977.371 1.114.792.138.42-.021.892-.434 1.293m6.44-2.442c-.29-1.083-2.041-1.592-2.617-2.585-.557-.96-.116-2.73-.94-3.552-.823-.82-2.6-.382-3.563-.936-.997-.576-1.507-2.32-2.593-2.609-1.102-.294-2.422.969-3.555.969s-2.453-1.263-3.555-.969c-1.086.288-1.597 2.033-2.593 2.609-.964.554-2.74.115-3.563.936-.825.822-.383 2.592-.94 3.552-.576.993-2.327 1.502-2.617 2.585-.295 1.1.973 2.414.973 3.544s-1.268 2.445-.973 3.543c.29 1.085 2.04 1.594 2.617 2.587.557.96.115 2.73.94 3.552.823.82 2.599.381 3.563.936.996.574 1.507 2.32 2.593 2.609 1.102.293 2.422-.97 3.555-.97s2.453 1.263 3.555.97c1.086-.29 1.596-2.035 2.593-2.61.963-.554 2.74-.115 3.563-.935.824-.823.383-2.592.94-3.552.576-.993 2.326-1.502 2.617-2.587.293-1.098-.973-2.414-.973-3.543s1.266-2.444.973-3.544"/><path fill="#1d1d1b" d="M23.91 35.376a.6.6 0 0 1-.187-.033l-6.071-2.185-5.897 2.183a.55.55 0 0 1-.744-.515v-9.94a.552.552 0 0 1 1.103 0v9.15l5.343-1.98a.55.55 0 0 1 .38 0l5.523 1.988v-9.158a.55.55 0 1 1 1.102 0v9.94a.547.547 0 0 1-.551.55"/><path fill="#1d1d1b" d="M14.19 33.994a.38.38 0 0 1-.385-.382v-6.11a.384.384 0 0 1 .767 0v6.11a.38.38 0 0 1-.383.382M21.145 33.994a.38.38 0 0 1-.383-.382v-6.11a.383.383 0 0 1 .767 0v6.11a.38.38 0 0 1-.384.382"/><path fill="#1d1d1b" d="M17.754 25.98c.631 0 1.242.284 1.833.558.576.267 1.173.545 1.59.433.406-.109.781-.639 1.143-1.151.379-.537.77-1.09 1.325-1.41.534-.307 1.194-.365 1.834-.421.642-.056 1.306-.113 1.625-.431.32-.318.377-.98.433-1.62.056-.639.115-1.297.422-1.83.322-.552.878-.943 1.416-1.32.513-.361 1.046-.735 1.154-1.139.112-.416-.165-1.011-.435-1.585-.275-.59-.56-1.2-.56-1.828s.285-1.238.56-1.828c.27-.574.547-1.168.435-1.584-.108-.405-.64-.78-1.154-1.14-.538-.378-1.094-.767-1.416-1.32-.307-.532-.366-1.191-.422-1.829-.056-.64-.113-1.302-.433-1.62-.319-.319-.983-.376-1.625-.432-.64-.055-1.3-.114-1.834-.42-.555-.32-.946-.874-1.325-1.41-.362-.514-.737-1.043-1.142-1.153-.418-.11-1.015.167-1.59.434-.592.274-1.203.559-1.834.559-.63 0-1.241-.285-1.832-.559-.577-.267-1.173-.544-1.59-.434-.407.11-.78.64-1.143 1.152-.38.537-.771 1.091-1.326 1.41-.533.307-1.195.366-1.834.421-.642.056-1.307.113-1.626.432-.318.318-.376.98-.432 1.62-.056.638-.114 1.297-.422 1.828-.32.554-.877.943-1.415 1.32-.515.362-1.046.736-1.154 1.141-.112.416.166 1.01.434 1.584.275.59.56 1.2.56 1.828s-.285 1.238-.56 1.828c-.268.574-.546 1.169-.434 1.585.108.404.64.778 1.154 1.14.538.376 1.094.767 1.415 1.32.308.531.366 1.19.422 1.828.056.64.114 1.303.432 1.62.32.319.984.376 1.626.432.64.056 1.301.114 1.834.42.555.321.947.874 1.326 1.41.362.514.736 1.043 1.142 1.152.418.11 1.014-.166 1.59-.433.592-.274 1.203-.558 1.833-.558m3.218 2.116c-.642 0-1.277-.295-1.851-.56-.482-.226-.981-.457-1.367-.457s-.885.232-1.367.456c-.72.334-1.536.713-2.341.499-.792-.212-1.284-.908-1.76-1.58-.31-.44-.63-.894-.975-1.093-.32-.184-.859-.23-1.379-.276-.8-.07-1.705-.15-2.308-.75s-.682-1.505-.751-2.302c-.046-.518-.094-1.054-.28-1.374-.198-.344-.654-.663-1.095-.972-.674-.474-1.372-.965-1.585-1.755-.213-.802.166-1.615.5-2.333.226-.48.458-.978.458-1.364 0-.384-.232-.881-.458-1.362-.334-.718-.713-1.53-.5-2.333.213-.791.91-1.28 1.585-1.755.44-.309.897-.628 1.096-.972.185-.32.233-.856.279-1.374.069-.797.148-1.7.751-2.301s1.509-.68 2.308-.75c.52-.046 1.058-.093 1.379-.277.345-.199.665-.653.975-1.092.476-.673.968-1.369 1.76-1.58.805-.214 1.622.164 2.34.498.483.225.982.456 1.368.456s.885-.231 1.367-.456c.72-.334 1.536-.713 2.34-.499.794.212 1.285.908 1.76 1.58.31.44.63.894.976 1.093.322.184.859.23 1.378.276.8.07 1.706.15 2.31.751.601.601.68 1.504.751 2.301.046.518.093 1.054.278 1.374.2.344.655.663 1.095.972.675.474 1.373.964 1.585 1.755.215.802-.165 1.615-.5 2.333-.224.48-.457.978-.457 1.363s.233.882.457 1.363c.335.718.715 1.53.5 2.333-.212.79-.91 1.28-1.585 1.755-.44.309-.896.628-1.095.972-.185.32-.232.856-.278 1.374-.07.797-.15 1.701-.751 2.301-.604.601-1.51.68-2.31.75-.52.046-1.056.093-1.378.277-.345.199-.666.653-.976 1.092-.475.673-.966 1.37-1.76 1.58a2 2 0 0 1-.489.063"/><path fill="#1d1d1b" d="M19.216 4.198q-.025 0-.05-.003a10 10 0 0 0-.876-.083.36.36 0 1 1 .037-.72c.313.017.63.047.938.09a.359.359 0 0 1-.049.716m-3.182.039a.36.36 0 0 1-.355-.301.36.36 0 0 1 .297-.414q.466-.075.937-.113a.36.36 0 0 1 .055.719 10 10 0 0 0-.874.105zm5.389.515a.4.4 0 0 1-.125-.022 10 10 0 0 0-.838-.27.36.36 0 1 1 .192-.693c.3.083.603.18.897.29a.359.359 0 0 1-.126.696m-7.581.094a.359.359 0 0 1-.134-.693q.438-.176.89-.312c.19-.058.393.05.45.24a.36.36 0 0 1-.241.45c-.28.083-.56.18-.831.289a.4.4 0 0 1-.134.026m9.617.924a.36.36 0 0 1-.196-.057 10 10 0 0 0-.76-.444.36.36 0 1 1 .338-.636c.276.145.551.306.814.475a.359.359 0 0 1-.196.662m-11.625.143a.36.36 0 0 1-.203-.658c.258-.176.53-.342.801-.495a.363.363 0 0 1 .493.138.36.36 0 0 1-.14.49 10 10 0 0 0-.747.463.37.37 0 0 1-.204.062M25.227 7.2a.36.36 0 0 1-.255-.106 11 11 0 0 0-.647-.596.36.36 0 0 1 .467-.55q.36.305.692.639a.36.36 0 0 1-.257.613m-15.126.184a.36.36 0 0 1-.262-.606q.324-.342.677-.656a.363.363 0 0 1 .51.03c.132.15.12.377-.03.508q-.33.293-.632.613a.37.37 0 0 1-.263.111m16.548 1.59a.36.36 0 0 1-.305-.168 10 10 0 0 0-.504-.72.361.361 0 0 1 .574-.437q.286.374.54.772a.36.36 0 0 1-.305.553m-17.925.22a.362.362 0 0 1-.31-.547q.244-.403.52-.783a.36.36 0 1 1 .585.422 10 10 0 0 0-.485.732.36.36 0 0 1-.31.175m18.93 1.815a.36.36 0 0 1-.34-.238 10 10 0 0 0-.336-.81.36.36 0 0 1 .175-.478.36.36 0 0 1 .479.174q.2.426.36.869a.36.36 0 0 1-.338.483m-19.885.245a.362.362 0 0 1-.343-.475q.15-.446.34-.878a.36.36 0 0 1 .475-.186c.182.08.267.291.186.474q-.175.403-.317.82a.36.36 0 0 1-.34.245m20.425 1.96a.36.36 0 0 1-.358-.314c-.037-.289-.09-.58-.152-.864a.36.36 0 0 1 .705-.156q.102.46.163.926a.36.36 0 0 1-.358.408m-20.91.258-.039-.001a.36.36 0 0 1-.321-.396c.033-.312.08-.625.14-.93a.36.36 0 0 1 .71.138q-.085.429-.133.867a.36.36 0 0 1-.358.322m20.963 2.032-.031-.001a.36.36 0 0 1-.33-.39q.038-.436.038-.876v-.022a.362.362 0 0 1 .721-.003v.025c0 .311-.013.628-.04.939a.36.36 0 0 1-.358.328m-20.962.238a.36.36 0 0 1-.359-.322 11 11 0 0 1-.06-.938.36.36 0 0 1 .352-.367c.2-.007.365.153.369.352.006.292.026.587.057.876a.358.358 0 0 1-.36.399m20.523 1.99a.36.36 0 0 1-.346-.468 10 10 0 0 0 .226-.848.361.361 0 0 1 .706.153 11 11 0 0 1-.242.91.36.36 0 0 1-.344.252m-20.033.226a.36.36 0 0 1-.342-.245c-.1-.296-.189-.6-.263-.904a.36.36 0 0 1 .702-.17q.104.428.245.844a.36.36 0 0 1-.342.475m19.12 1.853a.4.4 0 0 1-.18-.046.36.36 0 0 1-.133-.492q.22-.383.405-.78a.362.362 0 0 1 .655.304c-.132.282-.277.563-.433.834a.36.36 0 0 1-.314.18m-18.16.205a.36.36 0 0 1-.31-.173 11 11 0 0 1-.453-.826.36.36 0 1 1 .649-.317q.194.393.422.77a.36.36 0 0 1-.309.546m16.82 1.632a.36.36 0 0 1-.242-.094.36.36 0 0 1-.024-.508c.196-.216.385-.444.562-.675a.363.363 0 0 1 .507-.069.36.36 0 0 1 .068.504q-.285.376-.603.723a.36.36 0 0 1-.267.119m-15.441.172a.36.36 0 0 1-.262-.111 11 11 0 0 1-.619-.71.361.361 0 0 1 .564-.45q.276.345.578.665a.358.358 0 0 1-.261.606m13.74 1.335a.36.36 0 0 1-.209-.653c.237-.169.471-.35.694-.54a.36.36 0 0 1 .51.041.36.36 0 0 1-.042.508 12 12 0 0 1-.744.578.37.37 0 0 1-.21.066m-12.005.135q-.107 0-.202-.062-.39-.265-.757-.561a.36.36 0 1 1 .454-.559q.344.277.708.524a.359.359 0 0 1-.203.658m10.02.973a.36.36 0 0 1-.143-.69q.406-.174.795-.379a.36.36 0 1 1 .34.635 11 11 0 0 1-.852.405.4.4 0 0 1-.14.029m-8.008.09a.3.3 0 0 1-.133-.025c-.29-.116-.58-.246-.86-.386a.36.36 0 1 1 .324-.643q.394.197.803.36a.36.36 0 0 1-.134.695m5.827.564a.361.361 0 0 1-.065-.714 10 10 0 0 0 .857-.197.36.36 0 0 1 .194.693q-.455.126-.92.213a.4.4 0 0 1-.066.005m-3.63.042a.3.3 0 0 1-.06-.005q-.467-.076-.923-.191a.36.36 0 1 1 .177-.697q.426.106.863.177a.361.361 0 0 1-.057.716m1.697.135q-.175 0-.348-.005a.36.36 0 1 1 .022-.72c.293.01.591.007.882-.009a.36.36 0 0 1 .38.339.36.36 0 0 1-.341.38q-.297.015-.595.015M11.03 12.421c.022.037.06.091.13.159l1.99 1.933c.666.647 1.064 1.869.906 2.783l-.468 2.731a.7.7 0 0 0-.012.203.7.7 0 0 0 .19-.073l2.46-1.29c.824-.43 2.112-.43 2.936 0l2.46 1.29a.7.7 0 0 0 .19.073.7.7 0 0 0-.01-.203l-.47-2.73c-.158-.915.24-2.137.906-2.784l1.99-1.933a.8.8 0 0 0 .13-.159.7.7 0 0 0-.197-.051l-2.751-.4c-.92-.133-1.963-.887-2.375-1.718l-1.23-2.486a.8.8 0 0 0-.11-.171.7.7 0 0 0-.111.171l-1.23 2.486c-.412.83-1.454 1.585-2.375 1.719l-2.75.399a.7.7 0 0 0-.198.051m2.499 8.912c-.23 0-.44-.063-.617-.192-.359-.26-.51-.734-.412-1.3l.47-2.73c.096-.566-.178-1.41-.59-1.81l-1.99-1.934c-.413-.401-.57-.873-.434-1.294.137-.42.543-.71 1.114-.792l2.75-.398c.569-.083 1.29-.605 1.544-1.118l1.23-2.486c.255-.515.656-.81 1.1-.81s.845.295 1.1.81l1.231 2.486c.254.513.975 1.034 1.544 1.118l2.75.398c.57.082.976.371 1.113.792.138.421-.02.893-.434 1.294l-1.99 1.933c-.41.4-.687 1.245-.59 1.81l.47 2.731c.098.566-.052 1.04-.412 1.3-.36.261-.857.256-1.367-.01l-2.46-1.29c-.509-.267-1.4-.267-1.91 0l-2.46 1.29a1.64 1.64 0 0 1-.75.202"/><defs><linearGradient id="a" x1="18.837" x2="18.837" y1="1.532" y2="28.073" gradientUnits="userSpaceOnUse"><stop stop-color="#ed9b15"/><stop offset="1" stop-color="#fdc41a"/></linearGradient></defs></svg>