<svg xmlns="http://www.w3.org/2000/svg" width="35" height="36" fill="none" viewBox="0 0 35 36"><path fill="url(#a)" d="M27.98 18.796c0 9.157-3.911 16.58-8.738 16.58-4.826 0-8.738-7.423-8.738-16.58 0-9.158 3.912-16.581 8.738-16.581 4.827 0 8.738 7.423 8.738 16.581"/><path fill="#000" d="M18 16.763a.717.717 0 1 0 0 1.432.717.717 0 1 0 0-1.432m0 3.272a2.56 2.56 0 0 1-2.565-2.555c0-1.41 1.15-2.556 2.565-2.556a2.56 2.56 0 0 1 2.564 2.556A2.56 2.56 0 0 1 18 20.035"/><path fill="#000" d="M18 .376c-1.021 0-2.023.295-2.974.876a.737.737 0 1 0 .773 1.255c.716-.437 1.456-.66 2.2-.66 4.264 0 7.866 7.312 7.866 15.966 0 8.656-3.602 15.968-7.865 15.968-1.057 0-2.093-.441-3.077-1.313a.74.74 0 0 0-1.04.062.734.734 0 0 0 .06 1.038c1.262 1.118 2.626 1.684 4.057 1.684 5.238 0 9.341-7.66 9.341-17.439C27.341 8.036 23.238.376 18 .376"/><path fill="#000" d="M10.135 17.813c0-4.66 1.031-9.056 2.765-12.075q.162.033.333.033c.939 0 1.699-.759 1.699-1.694s-.76-1.692-1.699-1.692-1.7.758-1.7 1.692c0 .273.07.528.186.756-1.94 3.257-3.06 7.916-3.06 12.98 0 5.518 1.328 10.579 3.642 13.886a.743.743 0 0 0 1.028.182.734.734 0 0 0 .184-1.024c-2.114-3.02-3.378-7.897-3.378-13.044"/><path fill="#000" d="M32.777 22.028c.123-.236.199-.499.199-.782 0-.935-.76-1.694-1.699-1.694-.193 0-.376.039-.55.099-2.42-2.43-5.872-4.986-9.79-7.24C13.267 8.001 4.088 5.09 2.18 8.381a2.4 2.4 0 0 0-.316 1.166.737.737 0 0 0 .721.753h.018c.4 0 .728-.317.738-.718a.95.95 0 0 1 .118-.465c.918-1.584 7.731-.612 16.738 4.568 3.81 2.192 7.155 4.664 9.481 7.002a1.7 1.7 0 0 0-.102.559 1.697 1.697 0 0 0 2.016 1.661c1.048 1.476 1.222 2.458.945 2.935-.38.657-2.012 1.06-5.448.229-3.285-.796-7.295-2.5-11.29-4.798-5.25-3.02-9.682-6.648-11.565-9.469a.74.74 0 0 0-1.024-.205.735.735 0 0 0-.206 1.02c2.033 3.043 6.54 6.756 12.057 9.929 4.113 2.366 8.261 4.125 11.68 4.953 1.395.337 2.611.507 3.631.507 1.724-.002 2.893-.48 3.444-1.43.655-1.13.293-2.68-1.04-4.55"/><path fill="#000" d="M15.773 13.549a.74.74 0 0 0 .404-.12c3.887-2.527 7.758-4.409 10.898-5.3a.737.737 0 0 0 .509-.91.74.74 0 0 0-.914-.505c-3.278.931-7.292 2.878-11.3 5.483a.735.735 0 0 0 .403 1.352"/><path fill="#000" d="M33.173 7.349c-.673-.999-2.031-1.387-4.038-1.151a.737.737 0 0 0-.646.818.745.745 0 0 0 .82.643c1.35-.16 2.313.026 2.637.51 1.021 1.519-2.858 7.182-11.499 12.95-3.832 2.558-7.717 4.525-10.942 5.538-3.374 1.06-5.028.763-5.45.134-.39-.578-.074-1.796 1.025-3.438a1.696 1.696 0 0 0 1.692-1.693c0-.138-.022-.272-.054-.401 1.666-1.88 4.098-4.08 7.375-6.413a.733.733 0 0 0 .172-1.025.74.74 0 0 0-1.03-.171c-2.77 1.97-5.455 4.26-7.458 6.474a1.7 1.7 0 0 0-.706-.158c-.939 0-1.698.758-1.698 1.694 0 .398.142.759.373 1.049-1.268 1.944-1.737 3.684-.919 4.9.546.811 1.554 1.218 2.977 1.218 1.128 0 2.517-.256 4.145-.767 3.355-1.054 7.376-3.085 11.322-5.719 7.354-4.911 14.026-11.834 11.901-14.992"/><defs><linearGradient id="a" x1="19.242" x2="19.242" y1="2.215" y2="35.376" gradientUnits="userSpaceOnUse"><stop stop-color="#ed9b15"/><stop offset="1" stop-color="#fdc41a"/></linearGradient></defs></svg>