<svg xmlns="http://www.w3.org/2000/svg" width="115" height="90" fill="none" viewBox="0 0 115 90"><path fill="url(#a)" d="M114.282 28.065a1.07 1.07 0 0 0-.296-.581L99.956 13.47c-.034-.03-.075-.045-.109-.07a1.07 1.07 0 0 0-.76-.315H1.073c-.592 0-1.073.48-1.073 1.072v40.967c0 .591.48 1.072 1.073 1.072h8.533a1.073 1.073 0 1 0 0-2.144h-7.46V15.229h95.868v.182l-.017 12.93a1.07 1.07 0 0 0 1.067 1.075l12.923.064h.213v24.572H50.773a1.073 1.073 0 1 0 0 2.144h62.5c.592 0 1.073-.48 1.073-1.072v-26.71c0-.123-.025-.238-.064-.35"/><path fill="url(#b)" d="M48.227 22.423h-.972v4.71h.972c1.437 0 1.576-.88 1.576-2.493 0-1.598-.14-2.217-1.576-2.217m-2.45 5.99v-7.272h2.45c2.538 0 3.097 1.08 3.097 3.499 0 2.479-.483 3.774-3.097 3.774z"/><path fill="url(#c)" d="M52.604 21.139h1.478v7.275h-1.478z"/><path fill="url(#d)" d="M55.667 21.141h2.495l1.755 5.991h.11v-5.99h1.475v7.272h-2.429l-1.822-5.991h-.106v5.99h-1.478z"/><path fill="url(#e)" d="M65.44 21.141h4.712v1.282h-3.234v1.703h2.591v1.262h-2.59v1.744h3.233v1.282H65.44z"/><path fill="url(#f)" d="M71.368 21.141h2.495l1.758 5.991h.107v-5.99h1.478v7.272h-2.43l-1.82-5.991h-.11v5.99h-1.478z"/><path fill="url(#g)" d="M81.141 21.139h1.478v7.275h-1.478z"/><path fill="url(#h)" d="M88.572 22.468s-1.509-.173-2.13-.173c-.793 0-1.167.29-1.167.77 0 .46.29.623 1.509 1.005 1.576.502 2.057.943 2.057 2.153 0 1.582-1.082 2.32-2.516 2.32-.997 0-2.431-.33-2.431-.33l.148-1.145s1.437.193 2.197.193c.794 0 1.134-.377 1.134-.944 0-.449-.257-.65-1.305-.952-1.64-.472-2.26-1.027-2.26-2.194 0-1.507 1.005-2.158 2.483-2.158.976 0 2.402.288 2.402.288z"/><path fill="url(#i)" d="M94.227 24.821c0-1.68-.302-2.526-1.5-2.526-1.2 0-1.5.845-1.5 2.526 0 1.677.3 2.44 1.5 2.44 1.198 0 1.5-.763 1.5-2.44m-4.52 0c0-2.463.727-3.808 3.02-3.808 2.29 0 3.02 1.345 3.02 3.808 0 2.46-.73 3.721-3.02 3.721-2.293 0-3.02-1.262-3.02-3.72"/><path fill="url(#j)" d="M62.14 39.028c0-2.32-.702-4.216-2.798-4.216-1.599 0-2.496.924-2.496 2.518 0 1.522.897 2.27 2.42 2.27 1.35 0 2.874-.572 2.874-.572m-7.99 6.481s2.545.377 4.641.377c2.273 0 3.323-1.521 3.323-4.042 0-.025-1.947.748-3.147.748-3.571 0-5.667-1.694-5.667-5.262 0-3.467 2.322-5.51 6.042-5.51 4.343 0 6.317 3.215 6.317 8.43 0 6.532-2.648 8.626-6.868 8.626-2.096 0-4.94-.723-4.94-.723z"/><path fill="url(#k)" d="M70.7 40.448c0 4.04.875 5.435 2.873 5.435 1.996 0 2.82-1.396 2.82-5.435 0-4.29-.824-5.636-2.82-5.636-1.998 0-2.873 1.346-2.873 5.636m9.24 0c0 6.234-2.297 8.431-6.392 8.431-4.097 0-6.392-2.197-6.392-8.43 0-6.237 2.295-8.63 6.392-8.63 4.095 0 6.392 2.393 6.392 8.63"/><path fill="url(#l)" d="M84.654 40.448c0 4.04.875 5.435 2.873 5.435s2.82-1.396 2.82-5.435c0-4.29-.821-5.636-2.82-5.636s-2.873 1.346-2.873 5.636m9.24 0c0 6.234-2.298 8.431-6.392 8.431s-6.391-2.197-6.391-8.43c0-6.237 2.297-8.63 6.391-8.63s6.392 2.393 6.392 8.63"/><path fill="url(#m)" d="M101.756 32.118h3.147v16.46h-3.446V36.01l-3.57 2.291-1.573-2.565z"/><path fill="url(#n)" d="m48.238 69.749-2.759-7.292a.505.505 0 1 0-.947.358l2.627 6.948-4.11.061a.74.74 0 0 0-.47.179l-3.069 2.672-2.636-6.971a.51.51 0 0 0-.654-.296.505.505 0 0 0-.293.653l2.767 7.323-1.8 1.566-5.601-14.313c.352.117.724.288 1.096.458.757.352 1.596.743 2.446.743.214 0 .433-.026.648-.082 1.048-.278 1.7-1.202 2.328-2.093.408-.584.833-1.184 1.288-1.446.425-.246 1.137-.31 1.822-.368 1.06-.093 2.259-.196 3.055-.994.704-.704.867-1.717.959-2.672l5.877 15.53zm-20.083-9.974c-.76.354-1.548.72-2.102.572-.537-.143-1.031-.843-1.512-1.524-.5-.71-1.017-1.444-1.752-1.868-.705-.408-1.58-.483-2.426-.559-.85-.072-1.727-.15-2.15-.571-.422-.422-.497-1.299-.573-2.147-.072-.843-.15-1.717-.556-2.423-.424-.732-1.16-1.248-1.872-1.75-.68-.478-1.384-.973-1.526-1.509-.148-.552.221-1.34.576-2.101.363-.782.738-1.589.738-2.42 0-.833-.375-1.642-.738-2.42-.355-.763-.724-1.55-.576-2.103.142-.536.847-1.03 1.526-1.51.713-.5 1.448-1.017 1.872-1.75.405-.704.484-1.578.556-2.424.076-.846.151-1.722.574-2.144.422-.421 1.299-.5 2.149-.572.847-.075 1.721-.151 2.426-.558.735-.425 1.252-1.159 1.752-1.868.48-.68.975-1.382 1.512-1.527.554-.148 1.342.22 2.102.575.782.363 1.59.74 2.426.74.832 0 1.64-.377 2.423-.74.762-.354 1.55-.72 2.101-.575.537.145 1.032.846 1.513 1.527.5.71 1.019 1.443 1.752 1.868.704.407 1.579.483 2.426.558.85.073 1.727.15 2.148.572s.499 1.298.574 2.144c.073.846.15 1.72.558 2.424.422.733 1.161 1.25 1.87 1.75.68.48 1.384.974 1.527 1.51.148.553-.219 1.34-.574 2.102-.366.779-.74 1.588-.74 2.42s.374 1.642.74 2.42c.355.763.722 1.55.574 2.102-.143.536-.847 1.031-1.526 1.508-.71.503-1.449 1.02-1.87 1.75-.408.707-.486 1.58-.56 2.424-.074.848-.15 1.725-.573 2.147-.421.42-1.299.5-2.148.571-.847.076-1.722.151-2.426.56-.733.423-1.252 1.158-1.752 1.867-.481.68-.976 1.381-1.513 1.524-.55.148-1.339-.218-2.101-.572-.783-.364-1.59-.74-2.423-.74-.836 0-1.644.377-2.426.74m-4.85 15.175-1.799-1.566 2.77-7.323a.507.507 0 0 0-.95-.357l-2.636 6.97-3.069-2.671a.75.75 0 0 0-.47-.179l-4.11-.061 2.626-6.948a.506.506 0 1 0-.947-.358l-2.758 7.292-2.574-.036 6.654-17.063c.072.355.112.757.145 1.156.093 1.055.199 2.253.996 3.049.796.798 1.995.901 3.054.994.688.058 1.397.122 1.822.368.456.262.88.862 1.289 1.446.631.89 1.28 1.815 2.328 2.093.964.258 1.934-.128 2.817-.533zm22.25-23.252c.308-.348.772-.678 1.233-1.002.891-.628 1.814-1.278 2.093-2.325.285-1.064-.218-2.141-.66-3.09-.296-.637-.603-1.296-.603-1.807s.307-1.169.603-1.806c.442-.952.945-2.03.66-3.09-.28-1.05-1.202-1.697-2.096-2.325-.581-.41-1.182-.835-1.448-1.29-.243-.425-.307-1.134-.366-1.82-.092-1.055-.199-2.253-.995-3.049-.796-.799-1.995-.901-3.055-.994-.685-.061-1.397-.123-1.822-.368-.455-.263-.88-.866-1.288-1.446-.629-.89-1.28-1.815-2.328-2.094-1.065-.285-2.144.218-3.094.662-.64.296-1.3.603-1.808.603-.512 0-1.172-.307-1.809-.603-.953-.444-2.031-.947-3.096-.662-1.048.28-1.697 1.203-2.328 2.094-.409.58-.833 1.183-1.289 1.446-.425.245-1.134.307-1.822.368-1.059.093-2.258.195-3.054.994-.797.796-.903 1.994-.996 3.048-.058.687-.12 1.396-.366 1.82-.263.456-.867.88-1.447 1.29-.895.629-1.817 1.276-2.097 2.326-.284 1.06.219 2.138.66 3.09.3.637.607 1.295.607 1.806s-.308 1.17-.607 1.807c-.441.949-.944 2.026-.66 3.09.28 1.047 1.202 1.697 2.097 2.325.228.162.457.327.67.494L7.658 70.168a.74.74 0 0 0 .078.666.74.74 0 0 0 .593.32l8.534.122 6.275 5.46a.728.728 0 0 0 1.16-.29l5.707-15.097 5.897 15.097a.728.728 0 0 0 1.16.29l6.274-5.46 8.535-.123a.74.74 0 0 0 .593-.319.73.73 0 0 0 .078-.666z"/><path fill="url(#o)" d="M36.883 55.345c-.342.181-.697.348-1.051.499a.476.476 0 0 0 .187.916.5.5 0 0 0 .187-.037c.38-.161.76-.343 1.124-.539a.476.476 0 1 0-.447-.84"/><path fill="url(#p)" d="M39.29 53.71a14 14 0 0 1-.92.715.48.48 0 0 0-.114.665.48.48 0 0 0 .667.114c.335-.24.668-.5.984-.767a.473.473 0 0 0 .054-.67.476.476 0 0 0-.672-.056"/><path fill="url(#q)" d="M33.225 57.62c.407-.076.815-.17 1.215-.282a.477.477 0 1 0-.258-.919q-.556.156-1.134.263a.476.476 0 0 0 .176.937"/><path fill="url(#r)" d="M41.288 51.603c-.235.308-.484.61-.747.894a.477.477 0 0 0 .355.798.48.48 0 0 0 .355-.156c.277-.307.545-.631.797-.96a.476.476 0 1 0-.76-.576"/><path fill="url(#s)" d="M43.422 48.882a.48.48 0 0 0-.633.231q-.245.53-.534 1.033a.478.478 0 1 0 .827.475c.206-.358.4-.731.573-1.106a.475.475 0 0 0-.233-.633"/><path fill="url(#t)" d="M44.504 42.966a.48.48 0 0 0-.475.48v.028c0 .388-.016.78-.05 1.162a.475.475 0 0 0 .436.516q.017.004.04.003a.477.477 0 0 0 .474-.436q.054-.62.053-1.245v-.03a.48.48 0 0 0-.478-.478"/><path fill="url(#u)" d="M44.286 45.998a.48.48 0 0 0-.569.363c-.082.377-.182.756-.296 1.125a.474.474 0 0 0 .455.62.475.475 0 0 0 .453-.335c.126-.397.231-.802.32-1.207a.475.475 0 0 0-.363-.566"/><path fill="url(#v)" d="M17.834 47.776a14 14 0 0 1-.324-1.117.477.477 0 0 0-.928.224c.1.404.215.807.349 1.198a.477.477 0 0 0 .903-.305"/><path fill="url(#w)" d="M20.055 51.84a.478.478 0 0 0-.746.595q.39.488.82.941c.095.098.22.148.346.148a.476.476 0 0 0 .347-.804 15 15 0 0 1-.767-.88"/><path fill="url(#x)" d="M18.5 49.387a.48.48 0 0 0-.639-.218.48.48 0 0 0-.218.64c.182.37.383.74.598 1.094.09.148.249.229.408.229a.5.5 0 0 0 .249-.067.48.48 0 0 0 .16-.657c-.2-.329-.386-.672-.557-1.02"/><path fill="url(#y)" d="M43.711 40.557q.126.567.201 1.148c.034.24.238.413.473.413q.032 0 .064-.003a.48.48 0 0 0 .41-.536c-.052-.41-.126-.823-.215-1.226a.476.476 0 0 0-.57-.363.473.473 0 0 0-.363.567"/><path fill="url(#z)" d="M28.412 56.735a13 13 0 0 1-1.14-.238.476.476 0 1 0-.235.924q.602.154 1.222.254.037.008.075.006a.477.477 0 0 0 .078-.947"/><path fill="url(#A)" d="M31.316 56.888c-.386.02-.777.025-1.165.014a.476.476 0 1 0-.03.952q.229.008.46.008c.26 0 .526-.008.785-.022a.48.48 0 0 0 .453-.502.48.48 0 0 0-.503-.45"/><path fill="url(#B)" d="M25.609 55.961c-.36-.145-.719-.304-1.065-.477a.477.477 0 0 0-.428.851c.372.187.755.357 1.138.51a.477.477 0 0 0 .355-.885"/><path fill="url(#C)" d="M22.105 53.904a.48.48 0 0 0-.671.07.474.474 0 0 0 .067.67c.321.262.66.513 1.003.745.081.056.173.08.266.08a.475.475 0 0 0 .268-.87 13 13 0 0 1-.933-.695"/><path fill="url(#D)" d="M17.22 39.497q.08.024.152.025a.48.48 0 0 0 .456-.324c.123-.366.262-.732.416-1.087a.478.478 0 0 0-.875-.382c-.165.38-.316.773-.447 1.164-.087.249.05.52.299.603"/><path fill="url(#E)" d="M18.39 36.721a.47.47 0 0 0 .657-.162c.198-.329.416-.655.643-.971a.476.476 0 1 0-.772-.558c-.243.335-.475.684-.69 1.038a.48.48 0 0 0 .162.653"/><path fill="url(#F)" d="M20.458 34.396c.128 0 .254-.05.346-.15a14 14 0 0 1 .839-.81.476.476 0 0 0-.635-.712c-.31.273-.612.566-.897.868a.478.478 0 0 0 .347.804"/><path fill="url(#G)" d="M42.778 37.81c.165.35.313.712.444 1.072a.48.48 0 0 0 .45.316.4.4 0 0 0 .162-.031.47.47 0 0 0 .285-.609c-.14-.39-.302-.776-.475-1.153a.478.478 0 1 0-.866.405"/><path fill="url(#H)" d="M16.786 45.464a.477.477 0 0 0 .425-.524 13 13 0 0 1-.076-1.161.477.477 0 0 0-.956.022c.012.413.037.832.082 1.242a.477.477 0 0 0 .475.424q.026 0 .05-.003"/><path fill="url(#I)" d="M16.682 42.458a.48.48 0 0 0 .526-.424c.038-.382.097-.77.173-1.15a.478.478 0 0 0-.937-.182c-.08.405-.142.821-.187 1.231a.476.476 0 0 0 .424.525"/><path fill="url(#J)" d="M25.405 31.032a.5.5 0 0 0 .178-.033 13 13 0 0 1 1.099-.386.477.477 0 1 0-.277-.912q-.596.179-1.176.413a.475.475 0 0 0 .176.918"/><path fill="url(#K)" d="M22.75 32.445a.47.47 0 0 0 .268-.081q.484-.328.993-.614a.477.477 0 0 0-.47-.832q-.543.306-1.06.656a.476.476 0 0 0 .269.871"/><path fill="url(#L)" d="M41.939 36.28a.48.48 0 0 0 .66.145.477.477 0 0 0 .145-.658c-.22-.346-.461-.693-.713-1.022a.48.48 0 0 0-.67-.09.48.48 0 0 0-.09.67c.235.308.46.629.667.955"/><path fill="url(#M)" d="M40.125 34.01a.48.48 0 0 0 .673.004.476.476 0 0 0 .003-.676c-.29-.293-.6-.578-.914-.846a.478.478 0 0 0-.617.73c.293.247.58.515.855.789"/><path fill="url(#N)" d="M34.159 30.521c.372.1.743.224 1.106.357q.084.03.168.031a.48.48 0 0 0 .447-.312.474.474 0 0 0-.282-.612 15 15 0 0 0-1.188-.385.478.478 0 1 0-.252.921"/><path fill="url(#O)" d="M36.86 31.593c.342.179.68.377 1.004.587a.483.483 0 0 0 .663-.14.476.476 0 0 0-.144-.66q-.525-.339-1.078-.63a.47.47 0 0 0-.643.198.475.475 0 0 0 .199.645"/><path fill="url(#P)" d="M31.288 30.058q.584.032 1.16.111a.48.48 0 0 0 .539-.407.48.48 0 0 0-.408-.536c-.41-.058-.827-.098-1.24-.12a.477.477 0 1 0-.05.952"/><path fill="url(#Q)" d="M28.305 30.225q.038 0 .079-.006c.38-.063.769-.111 1.157-.139a.477.477 0 0 0-.072-.952c-.417.034-.834.084-1.242.148a.48.48 0 0 0-.394.55c.04.232.244.4.472.4"/><path fill="url(#R)" d="m28.56 49.61-3.253 1.709a1 1 0 0 1-.252.098.9.9 0 0 1 .014-.268l.62-3.621c.21-1.209-.318-2.831-1.199-3.685l-2.632-2.566a1 1 0 0 1-.17-.21c.053-.021.137-.05.263-.066l3.636-.53c1.215-.176 2.596-1.175 3.137-2.278l1.63-3.292a1 1 0 0 1 .145-.226c.04.042.093.112.149.226l1.626 3.292c.545 1.103 1.923 2.102 3.139 2.277l3.639.53a1 1 0 0 1 .26.068.9.9 0 0 1-.171.21l-2.633 2.565c-.88.854-1.406 2.476-1.198 3.685l.623 3.62c.02.123.02.212.014.269a1 1 0 0 1-.252-.098l-3.253-1.709c-1.09-.572-2.795-.572-3.882 0m3.203 1.29 3.253 1.709c.673.354 1.333.36 1.808.013.476-.343.674-.97.545-1.722l-.62-3.618c-.129-.748.234-1.868.78-2.398l2.63-2.563c.547-.53.757-1.155.575-1.713-.181-.556-.718-.941-1.473-1.05l-3.639-.528c-.752-.109-1.705-.801-2.04-1.483l-1.626-3.29c-.339-.684-.87-1.075-1.457-1.075-.586 0-1.118.39-1.452 1.075l-1.628 3.29c-.337.682-1.29 1.374-2.042 1.483l-3.636.528c-.755.108-1.292.494-1.473 1.05-.182.558.027 1.183.573 1.713l2.633 2.563c.541.53.907 1.65.779 2.398l-.62 3.618c-.132.751.067 1.38.542 1.722.235.17.514.257.816.257.313 0 .651-.09.992-.27l3.256-1.709c.671-.352 1.85-.352 2.524 0"/><defs><linearGradient id="a" x1="57.173" x2="57.173" y1="13.085" y2="76.915" gradientUnits="userSpaceOnUse"><stop stop-color="#ed9b15"/><stop offset="1" stop-color="#fdc41a"/></linearGradient><linearGradient id="b" x1="57.173" x2="57.173" y1="13.085" y2="76.915" gradientUnits="userSpaceOnUse"><stop stop-color="#ed9b15"/><stop offset="1" stop-color="#fdc41a"/></linearGradient><linearGradient id="c" x1="57.173" x2="57.173" y1="13.085" y2="76.915" gradientUnits="userSpaceOnUse"><stop stop-color="#ed9b15"/><stop offset="1" stop-color="#fdc41a"/></linearGradient><linearGradient id="d" x1="57.173" x2="57.173" y1="13.085" y2="76.915" gradientUnits="userSpaceOnUse"><stop stop-color="#ed9b15"/><stop offset="1" stop-color="#fdc41a"/></linearGradient><linearGradient id="e" x1="57.173" x2="57.173" y1="13.085" y2="76.915" gradientUnits="userSpaceOnUse"><stop stop-color="#ed9b15"/><stop offset="1" stop-color="#fdc41a"/></linearGradient><linearGradient id="f" x1="57.173" x2="57.173" y1="13.085" y2="76.915" gradientUnits="userSpaceOnUse"><stop stop-color="#ed9b15"/><stop offset="1" stop-color="#fdc41a"/></linearGradient><linearGradient id="g" x1="57.173" x2="57.173" y1="13.085" y2="76.915" gradientUnits="userSpaceOnUse"><stop stop-color="#ed9b15"/><stop offset="1" stop-color="#fdc41a"/></linearGradient><linearGradient id="h" x1="57.173" x2="57.173" y1="13.085" y2="76.915" gradientUnits="userSpaceOnUse"><stop stop-color="#ed9b15"/><stop offset="1" stop-color="#fdc41a"/></linearGradient><linearGradient id="i" x1="57.173" x2="57.173" y1="13.085" y2="76.915" gradientUnits="userSpaceOnUse"><stop stop-color="#ed9b15"/><stop offset="1" stop-color="#fdc41a"/></linearGradient><linearGradient id="j" x1="57.173" x2="57.173" y1="13.085" y2="76.915" gradientUnits="userSpaceOnUse"><stop stop-color="#ed9b15"/><stop offset="1" stop-color="#fdc41a"/></linearGradient><linearGradient id="k" x1="57.173" x2="57.173" y1="13.085" y2="76.915" gradientUnits="userSpaceOnUse"><stop stop-color="#ed9b15"/><stop offset="1" stop-color="#fdc41a"/></linearGradient><linearGradient id="l" x1="57.173" x2="57.173" y1="13.085" y2="76.915" gradientUnits="userSpaceOnUse"><stop stop-color="#ed9b15"/><stop offset="1" stop-color="#fdc41a"/></linearGradient><linearGradient id="m" x1="57.173" x2="57.173" y1="13.085" y2="76.915" gradientUnits="userSpaceOnUse"><stop stop-color="#ed9b15"/><stop offset="1" stop-color="#fdc41a"/></linearGradient><linearGradient id="n" x1="57.173" x2="57.173" y1="13.085" y2="76.915" gradientUnits="userSpaceOnUse"><stop stop-color="#ed9b15"/><stop offset="1" stop-color="#fdc41a"/></linearGradient><linearGradient id="o" x1="57.173" x2="57.173" y1="13.085" y2="76.915" gradientUnits="userSpaceOnUse"><stop stop-color="#ed9b15"/><stop offset="1" stop-color="#fdc41a"/></linearGradient><linearGradient id="p" x1="57.173" x2="57.173" y1="13.085" y2="76.915" gradientUnits="userSpaceOnUse"><stop stop-color="#ed9b15"/><stop offset="1" stop-color="#fdc41a"/></linearGradient><linearGradient id="q" x1="57.173" x2="57.173" y1="13.085" y2="76.915" gradientUnits="userSpaceOnUse"><stop stop-color="#ed9b15"/><stop offset="1" stop-color="#fdc41a"/></linearGradient><linearGradient id="r" x1="57.173" x2="57.173" y1="13.085" y2="76.915" gradientUnits="userSpaceOnUse"><stop stop-color="#ed9b15"/><stop offset="1" stop-color="#fdc41a"/></linearGradient><linearGradient id="s" x1="57.173" x2="57.173" y1="13.085" y2="76.915" gradientUnits="userSpaceOnUse"><stop stop-color="#ed9b15"/><stop offset="1" stop-color="#fdc41a"/></linearGradient><linearGradient id="t" x1="57.173" x2="57.173" y1="13.085" y2="76.915" gradientUnits="userSpaceOnUse"><stop stop-color="#ed9b15"/><stop offset="1" stop-color="#fdc41a"/></linearGradient><linearGradient id="u" x1="57.173" x2="57.173" y1="13.085" y2="76.915" gradientUnits="userSpaceOnUse"><stop stop-color="#ed9b15"/><stop offset="1" stop-color="#fdc41a"/></linearGradient><linearGradient id="v" x1="57.173" x2="57.173" y1="13.085" y2="76.915" gradientUnits="userSpaceOnUse"><stop stop-color="#ed9b15"/><stop offset="1" stop-color="#fdc41a"/></linearGradient><linearGradient id="w" x1="57.173" x2="57.173" y1="13.085" y2="76.915" gradientUnits="userSpaceOnUse"><stop stop-color="#ed9b15"/><stop offset="1" stop-color="#fdc41a"/></linearGradient><linearGradient id="x" x1="57.173" x2="57.173" y1="13.085" y2="76.915" gradientUnits="userSpaceOnUse"><stop stop-color="#ed9b15"/><stop offset="1" stop-color="#fdc41a"/></linearGradient><linearGradient id="y" x1="57.173" x2="57.173" y1="13.085" y2="76.915" gradientUnits="userSpaceOnUse"><stop stop-color="#ed9b15"/><stop offset="1" stop-color="#fdc41a"/></linearGradient><linearGradient id="z" x1="57.173" x2="57.173" y1="13.085" y2="76.915" gradientUnits="userSpaceOnUse"><stop stop-color="#ed9b15"/><stop offset="1" stop-color="#fdc41a"/></linearGradient><linearGradient id="A" x1="57.173" x2="57.173" y1="13.085" y2="76.915" gradientUnits="userSpaceOnUse"><stop stop-color="#ed9b15"/><stop offset="1" stop-color="#fdc41a"/></linearGradient><linearGradient id="B" x1="57.173" x2="57.173" y1="13.085" y2="76.915" gradientUnits="userSpaceOnUse"><stop stop-color="#ed9b15"/><stop offset="1" stop-color="#fdc41a"/></linearGradient><linearGradient id="C" x1="57.173" x2="57.173" y1="13.085" y2="76.915" gradientUnits="userSpaceOnUse"><stop stop-color="#ed9b15"/><stop offset="1" stop-color="#fdc41a"/></linearGradient><linearGradient id="D" x1="57.173" x2="57.173" y1="13.085" y2="76.915" gradientUnits="userSpaceOnUse"><stop stop-color="#ed9b15"/><stop offset="1" stop-color="#fdc41a"/></linearGradient><linearGradient id="E" x1="57.173" x2="57.173" y1="13.085" y2="76.915" gradientUnits="userSpaceOnUse"><stop stop-color="#ed9b15"/><stop offset="1" stop-color="#fdc41a"/></linearGradient><linearGradient id="F" x1="57.173" x2="57.173" y1="13.085" y2="76.915" gradientUnits="userSpaceOnUse"><stop stop-color="#ed9b15"/><stop offset="1" stop-color="#fdc41a"/></linearGradient><linearGradient id="G" x1="57.173" x2="57.173" y1="13.085" y2="76.915" gradientUnits="userSpaceOnUse"><stop stop-color="#ed9b15"/><stop offset="1" stop-color="#fdc41a"/></linearGradient><linearGradient id="H" x1="57.173" x2="57.173" y1="13.085" y2="76.915" gradientUnits="userSpaceOnUse"><stop stop-color="#ed9b15"/><stop offset="1" stop-color="#fdc41a"/></linearGradient><linearGradient id="I" x1="57.173" x2="57.173" y1="13.085" y2="76.915" gradientUnits="userSpaceOnUse"><stop stop-color="#ed9b15"/><stop offset="1" stop-color="#fdc41a"/></linearGradient><linearGradient id="J" x1="57.173" x2="57.173" y1="13.085" y2="76.915" gradientUnits="userSpaceOnUse"><stop stop-color="#ed9b15"/><stop offset="1" stop-color="#fdc41a"/></linearGradient><linearGradient id="K" x1="57.173" x2="57.173" y1="13.085" y2="76.915" gradientUnits="userSpaceOnUse"><stop stop-color="#ed9b15"/><stop offset="1" stop-color="#fdc41a"/></linearGradient><linearGradient id="L" x1="57.173" x2="57.173" y1="13.085" y2="76.915" gradientUnits="userSpaceOnUse"><stop stop-color="#ed9b15"/><stop offset="1" stop-color="#fdc41a"/></linearGradient><linearGradient id="M" x1="57.173" x2="57.173" y1="13.085" y2="76.915" gradientUnits="userSpaceOnUse"><stop stop-color="#ed9b15"/><stop offset="1" stop-color="#fdc41a"/></linearGradient><linearGradient id="N" x1="57.173" x2="57.173" y1="13.085" y2="76.915" gradientUnits="userSpaceOnUse"><stop stop-color="#ed9b15"/><stop offset="1" stop-color="#fdc41a"/></linearGradient><linearGradient id="O" x1="57.173" x2="57.173" y1="13.085" y2="76.915" gradientUnits="userSpaceOnUse"><stop stop-color="#ed9b15"/><stop offset="1" stop-color="#fdc41a"/></linearGradient><linearGradient id="P" x1="57.173" x2="57.173" y1="13.085" y2="76.915" gradientUnits="userSpaceOnUse"><stop stop-color="#ed9b15"/><stop offset="1" stop-color="#fdc41a"/></linearGradient><linearGradient id="Q" x1="57.173" x2="57.173" y1="13.085" y2="76.915" gradientUnits="userSpaceOnUse"><stop stop-color="#ed9b15"/><stop offset="1" stop-color="#fdc41a"/></linearGradient><linearGradient id="R" x1="57.173" x2="57.173" y1="13.085" y2="76.915" gradientUnits="userSpaceOnUse"><stop stop-color="#ed9b15"/><stop offset="1" stop-color="#fdc41a"/></linearGradient></defs></svg>