<svg xmlns="http://www.w3.org/2000/svg" width="90" height="77" fill="none" viewBox="0 0 90 77"><path fill="url(#a)" d="M47.551 31.338c-4.23.57-9.322.589-15.236-.546a50 50 0 0 1 3.02-6.684 53.3 53.3 0 0 1 4.5-6.954 53.6 53.6 0 0 1 4.498 6.954 49 49 0 0 1 3.218 7.23m2.2 10.971H29.918c.133-3.165.728-6.182 1.548-8.944 3.74.74 7.182 1.05 10.308 1.05 2.389 0 4.584-.185 6.598-.481.734 2.602 1.256 5.427 1.38 8.375M48.03 54.534c-4.474-.615-9.902-.653-16.21.554-1.001-3.06-1.75-6.478-1.903-10.087h19.835c-.145 3.391-.812 6.614-1.722 9.533m-3.697 8.669a53.6 53.6 0 0 1-4.498 6.953 53.3 53.3 0 0 1-4.5-6.954 51 51 0 0 1-2.591-5.55c5.558-1.018 10.37-1.024 14.387-.525a50 50 0 0 1-2.798 6.075m-24.915-1.504c3.79-1.586 7.344-2.718 10.658-3.49a53 53 0 0 0 2.931 6.345 57 57 0 0 0 3.938 6.238c-6.176-.656-11.902-3.377-16.356-7.836a26 26 0 0 1-1.17-1.257m-6.785-19.39a27.05 27.05 0 0 1 4.405-13.586c4.192 1.845 8.126 3.166 11.794 4.062-.858 2.936-1.472 6.147-1.606 9.524zm16.388 12.892c.046.151.104.305.153.456-3.577.853-7.41 2.103-11.496 3.861a27.04 27.04 0 0 1-5.045-14.517h14.59c.127 3.325.731 6.751 1.798 10.2m-8.432-30.847c4.454-4.459 10.18-7.18 16.356-7.835a57 57 0 0 0-3.938 6.24 52 52 0 0 0-3.346 7.459c-3.415-.827-7.085-2.037-10.994-3.726.6-.74 1.24-1.456 1.922-2.138m35.669-4.232a1.35 1.35 0 0 0-.42-1.857 29.9 29.9 0 0 0-15.956-4.598h-.061c-7.985.017-15.486 3.133-21.134 8.785-5.66 5.662-8.78 13.193-8.78 21.204 0 8.01 3.12 15.54 8.78 21.206 5.648 5.648 13.149 8.767 21.134 8.78h.061A30 30 0 0 0 54.577 69.8a1.346 1.346 0 0 0 .51-1.834 1.34 1.34 0 0 0-1.832-.513 27.3 27.3 0 0 1-10.531 3.339 57 57 0 0 0 3.94-6.238 53 53 0 0 0 3.175-6.997c1.357.264 2.6.58 3.731.923a1.345 1.345 0 1 0 .78-2.576c-1.11-.337-2.33-.65-3.65-.918.93-3.06 1.603-6.431 1.742-9.985h1.949c.742 0 1.342-.603 1.342-1.345 0-.743-.6-1.347-1.342-1.347h-1.945c-.114-2.89-.583-5.854-1.404-8.848a40 40 0 0 0 4.161-1.117 1.35 1.35 0 0 0 .858-1.697 1.347 1.347 0 0 0-1.699-.859c-1.238.407-2.619.78-4.13 1.094a52 52 0 0 0-3.568-8.123 57 57 0 0 0-3.937-6.235 27.1 27.1 0 0 1 11.675 4.018c.63.398 1.459.21 1.856-.42"/><path fill="url(#b)" d="M73.782 10.334a.74.74 0 0 0-1.177-.009l-.377.479C67.925 16.293 60.72 25.477 57.856 36.38c-3.506 13.333.594 25.296 12.177 35.558a.745.745 0 0 0 1.235-.517l1.879-34.65 1.224 35.875a.744.744 0 0 0 1.113.617c3.427-1.97 11.65-7.752 13.915-18.87 2.49-12.226-2.764-27.05-15.617-44.06"/><path fill="url(#c)" d="m15.72 73.994.74.59 2.847-3.58-.742-.59c-1.087-.867-1.725-.284-2.702.943-.963 1.213-1.233 1.77-.142 2.637m5.483-3.075-4.395 5.533-1.865-1.483c-1.928-1.532-1.696-2.692-.234-4.531 1.501-1.886 2.65-2.58 4.633-1.002z"/><path fill="url(#d)" d="m11.218 71.639-.986-1.042 5.129-4.862.986 1.041z"/><path fill="url(#e)" d="M8.634 68.885 7.25 66.901l3.795-4.731-.061-.084-4.77 3.33-.82-1.175 5.793-4.044 1.348 1.932-3.757 4.78.058.088 4.772-3.333.82 1.175z"/><path fill="url(#f)" d="m3.079 59.602-1.568-4.3 1.17-.428 1.076 2.95 1.555-.566-.864-2.364 1.15-.42.865 2.364 1.591-.584-1.078-2.95 1.171-.429 1.571 4.3z"/><path fill="url(#g)" d="m.916 53.17-.383-2.393 5.478-2.605-.017-.101-5.745.919-.229-1.416L7 46.459l.373 2.33-5.468 2.665.017.101 5.747-.919.223 1.416z"/><path fill="url(#h)" d="m0 42.585.079-1.43 7.057.4-.082 1.433z"/><path fill="url(#i)" d="M2.305 35.01s-.432 1.41-.542 2.002c-.142.757.07 1.166.527 1.253.441.081.645-.165 1.23-1.262.76-1.416 1.264-1.795 2.418-1.58 1.514.28 2.024 1.444 1.768 2.813-.176.952-.747 2.263-.747 2.263l-1.067-.348s.44-1.335.573-2.06c.143-.757-.156-1.151-.695-1.25-.43-.082-.67.127-1.143 1.076-.739 1.48-1.382 1.972-2.496 1.767-1.438-.27-1.884-1.347-1.62-2.756.17-.932.7-2.24.7-2.24z"/><path fill="url(#j)" d="M6.448 29.95c-1.522-.588-2.392-.612-2.812.473-.418 1.088.243 1.654 1.766 2.243 1.522.586 2.316.58 2.733-.505.418-1.088-.164-1.624-1.687-2.21m-1.577 4.094c-2.23-.862-3.198-1.993-2.398-4.067.8-2.077 2.276-2.266 4.506-1.404 2.23.858 3.12 1.961 2.32 4.035-.8 2.077-2.198 2.294-4.428 1.436"/><path fill="url(#k)" d="m6.289 15.045 1.478-1.691 8.843 7.748-1.617 1.852-6.753-5.919-.447 2.997-2.119-.362z"/><path fill="url(#l)" d="m21.725 14.822-4.227 2.649-.995-1.585-1.756-8.279 2.293-1.44 1.406 8.187 2.143-1.345-1.749-2.794 2.082-1.306 1.751 2.794.952-.595 1.133 1.81-.95.599 1.031 1.647-2.084 1.306z"/><path fill="url(#m)" d="M27.325 7.987c.75 2.788 1.615 3.588 2.989 3.217 1.377-.372 1.685-1.488.933-4.276-.8-2.962-1.618-3.74-2.995-3.368-1.377.374-1.725 1.465-.927 4.427m6.364-1.72c1.163 4.302-.012 6.245-2.833 7.008-2.821.76-4.813-.327-5.976-4.63-1.16-4.302-.023-6.382 2.799-7.145 2.82-.763 4.85.464 6.01 4.767"/><path fill="url(#n)" d="M38.293 6.107c-.084 2.887.51 3.902 1.934 3.946 1.424.04 2.039-.94 2.125-3.827.09-3.064-.47-4.041-1.893-4.085-1.427-.04-2.077.902-2.166 3.966m6.587.195c-.13 4.453-1.815 5.973-4.735 5.885-2.919-.084-4.51-1.7-4.38-6.153S37.582-.08 40.502.003c2.92.087 4.509 1.846 4.378 6.299"/><path fill="url(#o)" d="m53.35 2.538 2.129.714-3.738 11.152-2.331-.784 2.856-8.514-2.937.742-.482-2.097z"/><defs><linearGradient id="a" x1="45" x2="45" y1="0" y2="76.452" gradientUnits="userSpaceOnUse"><stop stop-color="#ed9b15"/><stop offset="1" stop-color="#fdc41a"/></linearGradient><linearGradient id="b" x1="45" x2="45" y1="0" y2="76.452" gradientUnits="userSpaceOnUse"><stop stop-color="#ed9b15"/><stop offset="1" stop-color="#fdc41a"/></linearGradient><linearGradient id="c" x1="45" x2="45" y1="0" y2="76.452" gradientUnits="userSpaceOnUse"><stop stop-color="#ed9b15"/><stop offset="1" stop-color="#fdc41a"/></linearGradient><linearGradient id="d" x1="45" x2="45" y1="0" y2="76.452" gradientUnits="userSpaceOnUse"><stop stop-color="#ed9b15"/><stop offset="1" stop-color="#fdc41a"/></linearGradient><linearGradient id="e" x1="45" x2="45" y1="0" y2="76.452" gradientUnits="userSpaceOnUse"><stop stop-color="#ed9b15"/><stop offset="1" stop-color="#fdc41a"/></linearGradient><linearGradient id="f" x1="45" x2="45" y1="0" y2="76.452" gradientUnits="userSpaceOnUse"><stop stop-color="#ed9b15"/><stop offset="1" stop-color="#fdc41a"/></linearGradient><linearGradient id="g" x1="45" x2="45" y1="0" y2="76.452" gradientUnits="userSpaceOnUse"><stop stop-color="#ed9b15"/><stop offset="1" stop-color="#fdc41a"/></linearGradient><linearGradient id="h" x1="45" x2="45" y1="0" y2="76.452" gradientUnits="userSpaceOnUse"><stop stop-color="#ed9b15"/><stop offset="1" stop-color="#fdc41a"/></linearGradient><linearGradient id="i" x1="45" x2="45" y1="0" y2="76.452" gradientUnits="userSpaceOnUse"><stop stop-color="#ed9b15"/><stop offset="1" stop-color="#fdc41a"/></linearGradient><linearGradient id="j" x1="45" x2="45" y1="0" y2="76.452" gradientUnits="userSpaceOnUse"><stop stop-color="#ed9b15"/><stop offset="1" stop-color="#fdc41a"/></linearGradient><linearGradient id="k" x1="45" x2="45" y1="0" y2="76.452" gradientUnits="userSpaceOnUse"><stop stop-color="#ed9b15"/><stop offset="1" stop-color="#fdc41a"/></linearGradient><linearGradient id="l" x1="45" x2="45" y1="0" y2="76.452" gradientUnits="userSpaceOnUse"><stop stop-color="#ed9b15"/><stop offset="1" stop-color="#fdc41a"/></linearGradient><linearGradient id="m" x1="45" x2="45" y1="0" y2="76.452" gradientUnits="userSpaceOnUse"><stop stop-color="#ed9b15"/><stop offset="1" stop-color="#fdc41a"/></linearGradient><linearGradient id="n" x1="45" x2="45" y1="0" y2="76.452" gradientUnits="userSpaceOnUse"><stop stop-color="#ed9b15"/><stop offset="1" stop-color="#fdc41a"/></linearGradient><linearGradient id="o" x1="45" x2="45" y1="0" y2="76.452" gradientUnits="userSpaceOnUse"><stop stop-color="#ed9b15"/><stop offset="1" stop-color="#fdc41a"/></linearGradient></defs></svg>