<svg xmlns="http://www.w3.org/2000/svg" width="140" height="71" fill="none" viewBox="0 0 140 71"><g clip-path="url(#a)"><path fill="#1d1d1b" d="M18.909 22.101c3.136-5.156 7.419-9.12 10.783-10.712 8.43-3.993 16.776-3.47 25.045.988 1.956-6.723 2.396-5.007-2.213-7.89-2.89-1.805-2.958-1.698-5.92 1.218-1.829 1.801-5.545.848-6.251-1.605C39.303.451 39.168.013 36.29 0h-2.641c-1.782 0-2.662.528-2.958 2.363-.19 1.188-.212 2.661-1.27 3.444-1.798 1.333-4.376.929-6.022-.728-.313-.315-.681-.596-.931-.953-.872-1.23-1.951-1.312-3.115-.533-.923.618-.978.665-1.832 1.197-3.196 1.988-3.246 1.903-2.273 5.641.8 3.083-1.824 5.667-4.926 4.85q-3.66-.963-5.578 2.375c-1.418 2.47-1.815 3.18-.897 4.441h15.066z"/><path fill="url(#b)" d="M3.838 22.101c.373.507.957 1.103 1.778 1.937 1.896 1.933.969 5.693-1.579 6.412Q-.038 31.608.008 35.91c0 .298 0 0 .013.894.025 2.03.508 3.219 2.666 3.393 2.205.175 3.246 1.299 3.873 3.623.651 2.402-.927 3.134-2.045 4.139q-.159.145-.3.285h13.576c-1.642-3.044-2.72-6.497-3.06-10.26-.511-5.693 1.372-11.267 4.178-15.878H3.839z"/><path fill="url(#c)" d="M4.215 48.243c-1.155 1.175-1.096 2.15-.258 3.661.753 1.363.5.912.753 1.363q1.942 3.398 5.764 2.393c2.903-.762 5.536 1.899 4.778 4.828q-.99 3.828 2.4 5.786c.063.038.13.068.194.106 3.217 1.836 3.238 1.857 5.811-.774.96-.984 1.756-1.418 3.386-1.21 3.017.388 3.368 2.448 3.75 4.603.257 1.469.964 2.005 2.374 2.001h2.645c3.44-.004 3.44-.051 4.35-3.44.918-3.423 4.376-4.352 6.873-1.848q2.5 2.504 5.658.711c3.703-2.108 3.593-2.082 2.675-6.093-.41-1.8-.978-1.605-2.31-.928-13.234 6.693-28.728.984-35.275-11.163H4.215z"/><path fill="url(#d)" d="M50.272 51.555c1.448-1.366 2.844-1.899 4.592-1.899h4.765c-5.332 8.299-16.61 11.326-27.508 7.532.927-.34 1.828-.196 2.734-.153 5.878.272 11.147-1.435 15.422-5.48M32.159 14.007c.106.102.229.303.313.285 7.385-1.145 13.733.907 19.023 6.225.491.494.923.805 1.668.81 2.302.008 4.177 0 6.547 0-3.953-5.672-11.47-9.393-18.778-9.393-3.051 0-6.069.651-8.773 2.077"/><path fill="#fff" d="M32.743 39.996q-.002 2.12 3.043 2.12c2.032 0 3.043-.634 3.043-1.907q0-1.015-1.041-1.66c-.694-.43-1.532-.788-2.522-1.078a37 37 0 0 1-2.967-1 6.2 6.2 0 0 1-2.522-1.784q-1.041-1.215-1.041-3.028 0-7.72 9.873-7.719 3.607 0 5.455 1.367c1.232.911 1.85 2.18 1.85 3.798a6.3 6.3 0 0 1-.229 1.707q-.227.816-.474 1.154l-.245.37h-5.413c.448-.472.673-1.064.673-1.784q-.001-1.999-2.599-2-3.27.001-3.271 2.09 0 1.048 1.04 1.66c.695.409 1.533.733 2.523.971q1.48.352 2.98.877 1.498.524 2.539 1.737 1.04 1.215 1.04 3.15c0 2.607-.774 4.535-2.323 5.8q-2.322 1.89-7.152 1.89-4.83-.001-6.602-1.72-1.315-1.289-1.316-3.568 0-.862.182-1.877l.093-.494h5.502l-.06.37c-.042.204-.059.392-.059.553zm19.87 6.735c-2.916 0-4.93-.634-6.052-1.907q-1.161-1.355-1.16-3.78 0-1.05.216-2.245l1.253-7.072q1.375-7.778 9.937-7.778 3.546-.002 5.379 1.524c1.223 1.013 1.832 2.406 1.832 4.168q0 1.232-.351 2.444c-.233.809-.466 1.41-.686 1.801l-.334.613h-5.408q1.007-1.169 1.007-3.32-.001-1.138-.58-1.802c-.39-.443-.956-.66-1.71-.66q-3.086.001-3.669 3.445l-1.07 6.212a8.4 8.4 0 0 0-.153 1.566q-.001 2.031 2.416 2.031 2.904-.001 3.483-3.29h5.502l-.152.889q-1.224 7.166-9.692 7.166zM83.7 24.157l-3.85 22.144h-5.532l1.405-7.995h-5.959L68.39 46.3h-5.531l3.88-22.144h5.502l-1.65 9.35h5.958l1.65-9.35zm8.287 0 3.271 10.61 7.03-10.61h5.776l-3.88 22.144h-5.532l2.201-12.487-4.706 7.442h-4.004l-2.078-7.442-2.2 12.487h-5.502l3.881-22.144h5.747zm26.624-.217c4.909 0 7.368 2.018 7.368 6.059q0 1.015-.216 2.184l-1.071 6.152q-.736 4.273-3.178 6.336-2.445 2.061-6.877 2.06c-2.954 0-5.015-.685-6.175-2.06q-1.193-1.412-1.193-3.905c0-.736.08-1.55.245-2.43l1.071-6.153c.956-5.492 4.3-8.243 10.026-8.243m-5.929-4.121q-.001-1.57.702-2.29.705-.724 2.171-.725 2.05.002 2.049 1.784.001 1.57-.703 2.291-.704.723-2.201.724-2.018-.001-2.018-1.784m2.78 22.144q1.528-.001 2.446-.8c.61-.533 1.041-1.516 1.283-2.951l1.041-5.906c.059-.408.093-.779.093-1.106q.001-2.491-2.506-2.491-3.148.061-3.758 3.598l-1.041 5.905c-.08.51-.123 1.047-.123 1.6q-.001 2.154 2.569 2.155zm5.84-22.144q-.001-1.57.703-2.29.704-.724 2.171-.725 2.05.002 2.048 1.784 0 1.57-.702 2.291-.704.723-2.201.724-2.019-.001-2.019-1.784m17.851 26.478h-13.94l3.881-22.144h5.501L131.57 41.5h8.439zm-46.015 2.704.618 2.005 1.329-2.005h1.092l-.733 4.185H94.4l.415-2.359-.889 1.405h-.757l-.394-1.405-.415 2.359h-1.04L92.05 49zm4.842 4.185.033-.911h-.965l-.283.91H95.66l1.486-4.184h1.908l.022 4.185zm-.237-3.168-.458 1.478h.758l.063-1.478zm3.893-1.017q.755 0 1.079.383c.157.196.237.434.237.728 0 .106-.008.213-.029.332l-.225 1.294q-.115.657-.567 1.052-.45.396-1.168.396h-1.68l.732-4.185h1.621m-.364.907h-.377l-.41 2.371h.55q.272-.001.423-.149.154-.147.212-.485l.169-.954c.017-.085.021-.162.021-.234q.001-.555-.588-.554zm4.439 3.278h-2.899l.733-4.185h2.899l-.161.907h-1.862l-.132.783h1.537l-.161.907h-1.536l-.115.681h1.862l-.16.907zM108.853 49l-.728 4.185h-1.046l.733-4.185zm3.686 0-.728 4.185h-1.045l-.728-2.29-.394 2.29h-1.045l.732-4.185h1.075l.715 2.137.377-2.137zm2.243 4.266q-.818 0-1.134-.383-.216-.268-.216-.733.001-.216.046-.472l.203-1.163q.272-1.557 1.896-1.558.674-.002 1.016.29.348.288.347.787.001.204-.055.413t-.106.315l-.059.107h-1.024a.8.8 0 0 0 .148-.481q0-.525-.432-.524-.584 0-.698.681l-.195 1.116a1.6 1.6 0 0 0-.029.306q0 .401.469.4.472.001.606-.476h-.474l.114-.648h1.532l-.093.499-.03.17q-.242 1.354-1.837 1.354zm4.858-.081h-2.899l.732-4.185h2.899l-.161.907h-1.862l-.131.783h1.536l-.16.907h-1.537l-.114.681h1.862l-.161.907zM122.374 49q.661.001.935.29.209.22.208.557-.001.115-.021.243l-.081.45a1.45 1.45 0 0 1-.241.61 1.1 1.1 0 0 1-.377.332l.525 1.699h-1.168l-.487-1.563h-.359l-.237 1.563h-1.109l.732-4.186h1.676zm-.364.907h-.432l-.148 1.013h.407q.306 0 .44-.15a.56.56 0 0 0 .131-.39q0-.474-.394-.474zm3.225-.907.618 2.005 1.329-2.005h1.092l-.733 4.185h-1.045l.415-2.359-.889 1.405h-.757l-.394-1.405-.415 2.359h-1.041l.732-4.185zm4.841 4.185.034-.911h-.965l-.283.91h-1.105l1.486-4.184h1.908l.021 4.185zm-.237-3.168-.457 1.478h.758l.063-1.478zm5.481-1.017-.728 4.185h-1.045l-.728-2.29-.394 2.29h-1.045l.732-4.185h1.075l.715 2.137.377-2.137zm1.756 1.473.978-1.47h1.041l-1.782 2.577-.283 1.61h-1.046l.284-1.61-.88-2.576h1.104l.449 1.469h.135"/></g><defs><linearGradient id="b" x1="0" x2="18.909" y1="35.172" y2="35.172" gradientUnits="userSpaceOnUse"><stop stop-color="#941004"/><stop offset=".71" stop-color="#cb1719"/><stop offset="1" stop-color="#cc1719"/></linearGradient><linearGradient id="c" x1="3.339" x2="55.914" y1="59.624" y2="59.624" gradientUnits="userSpaceOnUse"><stop stop-color="#eb9c00"/><stop offset="1" stop-color="#ffec00"/></linearGradient><linearGradient id="d" x1="32.117" x2="59.71" y1="35.368" y2="35.368" gradientUnits="userSpaceOnUse"><stop offset=".09" stop-color="#d9d9d9"/><stop offset=".3" stop-color="#929191"/><stop offset=".56" stop-color="#fff"/><stop offset=".8" stop-color="#9a9a99"/><stop offset="1" stop-color="#4a4a49"/></linearGradient><clipPath id="a"><path fill="#fff" d="M0 0h140v71H0z"/></clipPath></defs></svg>