<svg xmlns="http://www.w3.org/2000/svg" width="157" height="90" fill="none" viewBox="0 0 157 90"><path fill="url(#a)" d="m51.452 41.28-.028-.002a2.59 2.59 0 0 1-2.142-1.17 2.56 2.56 0 0 1-.428-1.42 2.597 2.597 0 0 1 2.598-2.594 2.6 2.6 0 0 1 2.602 2.594 2.6 2.6 0 0 1-2.602 2.593M37.938 52.169a10.55 10.55 0 0 0-8.078-4.594l.153-7.095a10.52 10.52 0 0 0 7.445-3.949l7.019 3.833a10.4 10.4 0 0 0-.674 3.668c0 1.574.358 3.064.98 4.404zm-10.773 2.988c-.276.1-.568.162-.878.162a2.6 2.6 0 0 1-2.602-2.595 2.597 2.597 0 0 1 3.585-2.399 2.6 2.6 0 0 1 1.616 2.4c0 1.124-.719 2.07-1.721 2.432m-.878-27.91a2.597 2.597 0 0 1-2.602-2.595 2.597 2.597 0 0 1 2.602-2.594 2.596 2.596 0 0 1 2.599 2.594 2.596 2.596 0 0 1-2.6 2.595m28.074 6.256c-3.63 0-6.831 1.83-8.731 4.611l-6.845-3.738c.613-1.334.966-2.816.966-4.382 0-5.815-4.727-10.525-10.558-10.525-5.828 0-10.555 4.71-10.555 10.525 0 5.234 3.831 9.563 8.845 10.378l-.16 7.342c-4.936.88-8.685 5.177-8.685 10.352 0 5.816 4.727 10.529 10.555 10.529 5.831 0 10.558-4.713 10.558-10.529 0-1.283-.242-2.51-.665-3.648l7.027-3.83a10.54 10.54 0 0 0 8.248 3.972c5.831 0 10.557-4.714 10.557-10.528 0-5.815-4.726-10.529-10.558-10.529"/><path fill="url(#b)" d="M78.016 40.935h3.041v15.907h-3.332V44.697L74.27 46.91l-1.522-2.481z"/><path fill="url(#c)" d="M86.13 40.935h10.197v3.761L90.65 57.132l-3.094-.87 5.437-11.59v-.77H86.13z"/><path fill="url(#d)" d="M101.983 48.985c0 3.902.846 5.254 2.777 5.254 1.935 0 2.733-1.352 2.733-5.254 0-4.144-.798-5.447-2.733-5.447-1.931 0-2.777 1.303-2.777 5.447m8.941 0c0 6.024-2.224 8.142-6.186 8.142-3.963 0-6.187-2.118-6.187-8.142 0-6.025 2.224-8.339 6.187-8.339s6.186 2.314 6.186 8.339"/><path fill="url(#e)" d="M113.049 56.842V54.02l3.406-3.444c2.078-2.121 3.238-3.35 3.238-4.891 0-1.618-.75-2.1-2.611-2.1-1.642 0-3.769.363-3.769.363l-.167-2.577s2.365-.725 4.782-.725c3.651 0 5.196 1.592 5.196 4.554 0 2.458-.94 3.858-3.576 6.243l-2.778 2.506h6.621v2.893z"/><path fill="url(#f)" d="M136.825 40.935v2.891h-7.129l-.412 3.447s1.499-.577 2.851-.577c3.264 0 5.173 1.445 5.173 4.795 0 3.592-1.983 5.64-5.462 5.64-2.489 0-5.655-.893-5.655-.893l.363-2.458s2.923.459 4.88.459c1.571 0 2.443-.87 2.443-2.385 0-1.618-.702-2.266-2.225-2.266-1.693 0-3.022.407-3.022.407l-1.98-.456.435-8.604z"/><path fill="url(#g)" d="M75.78 30.676h-.892v4.305h.892c1.315 0 1.443-.801 1.443-2.28 0-1.456-.128-2.025-1.443-2.025m-2.246 5.48v-6.653h2.246c2.326 0 2.835.989 2.835 3.198 0 2.271-.44 3.455-2.835 3.455z"/><path fill="url(#h)" d="M79.794 29.503h1.354v6.653h-1.354z"/><path fill="url(#i)" d="M82.6 29.503h2.287l1.607 5.478h.1v-5.478h1.355v6.653h-2.227l-1.67-5.48h-.097v5.48H82.6z"/><path fill="url(#j)" d="M91.558 29.503h4.317v1.173h-2.962v1.555h2.375v1.155h-2.375v1.595h2.962v1.175h-4.317z"/><path fill="url(#k)" d="M96.995 29.503h2.287l1.608 5.478h.098v-5.478h1.353v6.653h-2.227l-1.668-5.48h-.096v5.48h-1.355z"/><path fill="url(#l)" d="M105.953 29.503h1.355v6.653h-1.355z"/><path fill="url(#m)" d="M112.762 30.715s-1.384-.156-1.952-.156c-.727 0-1.07.264-1.07.703 0 .422.264.569 1.383.92 1.442.462 1.883.861 1.883 1.966 0 1.45-.989 2.124-2.304 2.124-.911 0-2.227-.303-2.227-.303l.137-1.048s1.315.179 2.01.179c.728 0 1.04-.343 1.04-.864 0-.408-.235-.595-1.195-.87-1.503-.43-2.071-.94-2.071-2.005 0-1.379.923-1.977 2.275-1.977.895 0 2.198.264 2.198.264z"/><path fill="url(#n)" d="M117.943 32.868c0-1.535-.273-2.309-1.372-2.309s-1.375.774-1.375 2.309.276 2.232 1.375 2.232 1.372-.697 1.372-2.232m-4.139 0c0-2.252.668-3.484 2.767-3.484s2.766 1.232 2.766 3.484c0 2.25-.667 3.404-2.766 3.404s-2.767-1.155-2.767-3.404"/><path fill="url(#o)" d="m122.763 29.132 1.156.41-2.824 6.946-1.159-.41z"/><path fill="url(#p)" d="M124.93 29.503h1.354v6.653h-1.354z"/><path fill="url(#q)" d="M127.736 29.503h4.317v1.173h-2.962v1.555h2.374v1.155h-2.374v1.595h2.962v1.175h-4.317z"/><path fill="url(#r)" d="M137.35 36.046c-.452.1-1.332.226-1.94.226-2.062 0-2.553-1.116-2.553-3.444 0-2.523.571-3.444 2.553-3.444.696 0 1.539.167 1.952.267l-.04 1.076a14 14 0 0 0-1.716-.148c-1.031 0-1.354.36-1.354 2.249 0 1.79.235 2.252 1.392 2.252.451 0 1.286-.08 1.678-.139z"/><defs><linearGradient id="a" x1="78" x2="78" y1="19.468" y2="68.594" gradientUnits="userSpaceOnUse"><stop stop-color="#ed9b15"/><stop offset="1" stop-color="#fdc41a"/></linearGradient><linearGradient id="b" x1="78" x2="78" y1="19.468" y2="68.594" gradientUnits="userSpaceOnUse"><stop stop-color="#ed9b15"/><stop offset="1" stop-color="#fdc41a"/></linearGradient><linearGradient id="c" x1="78" x2="78" y1="19.468" y2="68.594" gradientUnits="userSpaceOnUse"><stop stop-color="#ed9b15"/><stop offset="1" stop-color="#fdc41a"/></linearGradient><linearGradient id="d" x1="78" x2="78" y1="19.468" y2="68.594" gradientUnits="userSpaceOnUse"><stop stop-color="#ed9b15"/><stop offset="1" stop-color="#fdc41a"/></linearGradient><linearGradient id="e" x1="78" x2="78" y1="19.468" y2="68.594" gradientUnits="userSpaceOnUse"><stop stop-color="#ed9b15"/><stop offset="1" stop-color="#fdc41a"/></linearGradient><linearGradient id="f" x1="78" x2="78" y1="19.468" y2="68.594" gradientUnits="userSpaceOnUse"><stop stop-color="#ed9b15"/><stop offset="1" stop-color="#fdc41a"/></linearGradient><linearGradient id="g" x1="78" x2="78" y1="19.468" y2="68.594" gradientUnits="userSpaceOnUse"><stop stop-color="#ed9b15"/><stop offset="1" stop-color="#fdc41a"/></linearGradient><linearGradient id="h" x1="78" x2="78" y1="19.468" y2="68.594" gradientUnits="userSpaceOnUse"><stop stop-color="#ed9b15"/><stop offset="1" stop-color="#fdc41a"/></linearGradient><linearGradient id="i" x1="78" x2="78" y1="19.468" y2="68.594" gradientUnits="userSpaceOnUse"><stop stop-color="#ed9b15"/><stop offset="1" stop-color="#fdc41a"/></linearGradient><linearGradient id="j" x1="78" x2="78" y1="19.468" y2="68.594" gradientUnits="userSpaceOnUse"><stop stop-color="#ed9b15"/><stop offset="1" stop-color="#fdc41a"/></linearGradient><linearGradient id="k" x1="78" x2="78" y1="19.468" y2="68.594" gradientUnits="userSpaceOnUse"><stop stop-color="#ed9b15"/><stop offset="1" stop-color="#fdc41a"/></linearGradient><linearGradient id="l" x1="78" x2="78" y1="19.468" y2="68.594" gradientUnits="userSpaceOnUse"><stop stop-color="#ed9b15"/><stop offset="1" stop-color="#fdc41a"/></linearGradient><linearGradient id="m" x1="78" x2="78" y1="19.468" y2="68.594" gradientUnits="userSpaceOnUse"><stop stop-color="#ed9b15"/><stop offset="1" stop-color="#fdc41a"/></linearGradient><linearGradient id="n" x1="78" x2="78" y1="19.468" y2="68.594" gradientUnits="userSpaceOnUse"><stop stop-color="#ed9b15"/><stop offset="1" stop-color="#fdc41a"/></linearGradient><linearGradient id="o" x1="78" x2="78" y1="19.468" y2="68.594" gradientUnits="userSpaceOnUse"><stop stop-color="#ed9b15"/><stop offset="1" stop-color="#fdc41a"/></linearGradient><linearGradient id="p" x1="78" x2="78" y1="19.468" y2="68.594" gradientUnits="userSpaceOnUse"><stop stop-color="#ed9b15"/><stop offset="1" stop-color="#fdc41a"/></linearGradient><linearGradient id="q" x1="78" x2="78" y1="19.468" y2="68.594" gradientUnits="userSpaceOnUse"><stop stop-color="#ed9b15"/><stop offset="1" stop-color="#fdc41a"/></linearGradient><linearGradient id="r" x1="78" x2="78" y1="19.468" y2="68.594" gradientUnits="userSpaceOnUse"><stop stop-color="#ed9b15"/><stop offset="1" stop-color="#fdc41a"/></linearGradient></defs></svg>