<svg xmlns="http://www.w3.org/2000/svg" width="91" height="90" fill="none" viewBox="0 0 91 90"><path fill="url(#a)" d="M15.685 57.049q-5.129-1.625-8.326-5.835-3.299-4.365-3.3-9.847.002-8.471 16.449-24.967a113 113 0 0 1 7.83 8.708c1.006-1.092 1.968-2.097 2.828-3.024q-4.567-5.527-9.24-9.997l-1.418-1.32-1.372 1.32A102.4 102.4 0 0 0 8.832 23.404Q0 34.57 0 41.367.002 48.88 4.872 54.56q4.771 5.635 12.032 6.95v.004c-.277-1.53-.468-3-.593-4.421a2.2 2.2 0 0 1-.626-.045"/><path fill="url(#b)" d="m70.859 12.087-1.366-1.318-1.425 1.318c-3.453 3.285-6.77 6.918-9.95 10.912.898.97 1.82 1.989 2.744 3.056 2.601-3.282 5.473-6.499 8.63-9.652 3.923 3.957 7.36 7.951 10.301 11.976q6.141 8.32 6.141 12.988 0 5.888-3.755 10.454-3.755 4.515-9.44 5.683c-.123.012-.24.014-.36.022a35 35 0 0 1-.858 4.14q7.815-.814 13.095-6.6C88.201 51.214 90 46.647 90 41.366c0-7.373-6.384-17.132-19.141-29.279"/><path fill="url(#c)" d="M58.896 57.49q1.656 0 2.36-1.33.531-.998.663-3.142c-.263.104-.545.26-.855.48a29.4 29.4 0 0 1-4.543 2.68q.73 1.311 2.375 1.312"/><path fill="url(#d)" d="M43.686 45.447q-1.67 0-2.386 1.354-.721 1.357-.721 4.696 0 3.336.735 4.664.73 1.33 2.386 1.329 1.655.002 2.36-1.33c.472-.884.708-2.446.708-4.678q0-3.351-.708-4.691-.704-1.345-2.374-1.344"/><path fill="url(#e)" d="M61.919 53.018q.042-.707.042-1.536 0-3.351-.705-4.691-.705-1.345-2.374-1.344t-2.386 1.354q-.72 1.357-.721 4.696-.001 3.336.733 4.664.006.008.013.016 2.347-1.108 4.543-2.678c.31-.22.593-.377.855-.48"/><path fill="url(#f)" d="M60.863 26.056A121 121 0 0 0 58.119 23q-7.057-8.527-13.857-15.021c-4.228 4.025-10.285 10.706-13.093 14.108-.863.924-1.825 1.93-2.83 3.018-5.923 6.425-13.456 15.976-12.028 31.989.125 1.421.316 2.89.593 4.418q3.092 8.525 10.454 13.803 7.568 5.43 16.904 5.43c6.194 0 11.793-1.79 16.805-5.38q7.356-5.224 10.455-13.7c.385-1.412.662-2.79.857-4.139 1.948-13.358-4.828-23.74-11.516-31.47"/><path fill="#000" d="M35.992 57.98h-2.78v-10.7l-2.46 1.06-.88-1.98 3.96-1.72h2.16zM46.51 56.8q-.62.78-1.46 1.12-.82.34-2.18.34t-2.32-.58q-2.02-1.24-2.02-6.32 0-5.06 2.1-6.36.98-.62 2.54-.62 2.34 0 3.44 1.52 1.12 1.52 1.12 5.4 0 3.96-1.22 5.5m-1.94-9.04q-.42-1-1.44-1t-1.46 1q-.42.98-.42 3.58 0 2.58.42 3.58.44.98 1.46.98t1.44-.98q.44-1 .44-3.58 0-2.6-.44-3.58m13.258 9.04q-.62.78-1.46 1.12-.82.34-2.18.34t-2.32-.58q-2.02-1.24-2.02-6.32 0-5.06 2.1-6.36.98-.62 2.54-.62 2.34 0 3.44 1.52 1.12 1.52 1.12 5.4 0 3.96-1.22 5.5m-1.94-9.04q-.42-1-1.44-1t-1.46 1q-.42.98-.42 3.58 0 2.58.42 3.58.44.98 1.46.98t1.44-.98q.44-1 .44-3.58 0-2.6-.44-3.58"/><defs><linearGradient id="a" x1="15.583" x2="15.583" y1="10.767" y2="61.515" gradientUnits="userSpaceOnUse"><stop stop-color="#ed9b15"/><stop offset="1" stop-color="#fdc41a"/></linearGradient><linearGradient id="b" x1="74.059" x2="74.059" y1="10.769" y2="61.665" gradientUnits="userSpaceOnUse"><stop stop-color="#ed9b15"/><stop offset="1" stop-color="#fdc41a"/></linearGradient><linearGradient id="c" x1="59.22" x2="59.22" y1="53.018" y2="57.49" gradientUnits="userSpaceOnUse"><stop stop-color="#ed9b15"/><stop offset="1" stop-color="#fdc41a"/></linearGradient><linearGradient id="d" x1="43.673" x2="43.673" y1="45.447" y2="57.49" gradientUnits="userSpaceOnUse"><stop stop-color="#ed9b15"/><stop offset="1" stop-color="#fdc41a"/></linearGradient><linearGradient id="e" x1="58.868" x2="58.868" y1="45.447" y2="56.177" gradientUnits="userSpaceOnUse"><stop stop-color="#ed9b15"/><stop offset="1" stop-color="#fdc41a"/></linearGradient><linearGradient id="f" x1="44.427" x2="44.427" y1="7.979" y2="80.745" gradientUnits="userSpaceOnUse"><stop stop-color="#ed9b15"/><stop offset="1" stop-color="#fdc41a"/></linearGradient></defs></svg>